<svg xmlns="http://www.w3.org/2000/svg" width="17" height="17" viewBox="0 0 17 17"><g><g opacity=".9"><g opacity=".9"><path fill="#fff" d="M15.033 11.945a3.092 3.092 0 0 1-3.089 3.088H4.553a3.092 3.092 0 0 1-3.09-3.088V4.553a3.092 3.092 0 0 1 3.09-3.09h7.391a3.092 3.092 0 0 1 3.09 3.09v7.392zM11.944 0H4.553A4.558 4.558 0 0 0 0 4.553v7.392a4.558 4.558 0 0 0 4.553 4.552h7.391a4.558 4.558 0 0 0 4.553-4.552V4.553A4.558 4.558 0 0 0 11.944 0z"/></g><g opacity=".9"><path fill="#fff" d="M8.249 11.036A2.79 2.79 0 0 1 5.46 8.249 2.79 2.79 0 0 1 8.25 5.462a2.79 2.79 0 0 1 2.787 2.787 2.79 2.79 0 0 1-2.787 2.787zm0-7.038a4.256 4.256 0 0 0-4.251 4.25 4.256 4.256 0 0 0 4.25 4.251A4.256 4.256 0 0 0 12.5 8.25a4.256 4.256 0 0 0-4.25-4.251z"/></g><g opacity=".9"><path fill="#fff" d="M12.678 2.757a1.078 1.078 0 0 0-1.074 1.073c0 .282.115.56.315.76.2.198.477.314.759.314.283 0 .559-.116.759-.315a1.078 1.078 0 0 0 0-1.518c-.2-.2-.476-.314-.76-.314z"/></g></g></g></svg>