<svg xmlns="http://www.w3.org/2000/svg" width="24" height="18" viewBox="0 0 24 18"><g><g><g opacity="-1"><path fill="#fff" d="M21.56 14.52a1.44 1.44 0 0 1-1.44 1.438H3.75a1.44 1.44 0 0 1-1.438-1.439V3.336a1.44 1.44 0 0 1 1.439-1.44h16.365a1.44 1.44 0 0 1 1.439 1.44v11.183zM20.12.681H3.75a2.651 2.651 0 0 0-2.649 2.65v11.187a2.651 2.651 0 0 0 2.65 2.65h16.365a2.651 2.651 0 0 0 2.65-2.65V3.336A2.649 2.649 0 0 0 20.12.682z"/><path fill="none" stroke="#fff" stroke-miterlimit="20" stroke-width=".8" d="M21.56 14.52a1.44 1.44 0 0 1-1.44 1.438H3.75a1.44 1.44 0 0 1-1.438-1.439V3.336a1.44 1.44 0 0 1 1.439-1.44h16.365a1.44 1.44 0 0 1 1.439 1.44v11.183zM20.12.681H3.75a2.651 2.651 0 0 0-2.649 2.65v11.187a2.651 2.651 0 0 0 2.65 2.65h16.365a2.651 2.651 0 0 0 2.65-2.65V3.336A2.649 2.649 0 0 0 20.12.682z"/></g><g opacity="-1"><path fill="#fff" d="M14.764 8.786l5.298-4.751a.608.608 0 0 0 .045-.856.608.608 0 0 0-.856-.045l-7.306 6.558-1.426-1.273c-.004-.005-.009-.01-.009-.014a.899.899 0 0 0-.098-.085l-5.8-5.19a.604.604 0 0 0-.857.049.604.604 0 0 0 .05.856l5.36 4.792-5.338 4.998a.608.608 0 0 0 .829.887l5.42-5.07 1.47 1.314a.605.605 0 0 0 .806-.005l1.511-1.353 5.388 5.119a.605.605 0 0 0 .834-.879z"/><path fill="none" stroke="#fff" stroke-miterlimit="20" stroke-width=".8" d="M14.764 8.786v0l5.298-4.751a.608.608 0 0 0 .045-.856.608.608 0 0 0-.856-.045l-7.306 6.558v0l-1.426-1.273c-.004-.005-.009-.01-.009-.014a.899.899 0 0 0-.098-.085l-5.8-5.19a.604.604 0 0 0-.857.049.604.604 0 0 0 .05.856l5.36 4.792v0l-5.338 4.998a.608.608 0 0 0 .829.887l5.42-5.07v0l1.47 1.314a.605.605 0 0 0 .806-.005l1.511-1.353v0l5.388 5.119a.605.605 0 0 0 .834-.879z"/></g></g></g></svg>