<svg xmlns="http://www.w3.org/2000/svg" width="24" height="18" viewBox="0 0 24 18"><g><g opacity="-1"><path fill="#fff" d="M21.56 14.52a1.44 1.44 0 0 1-1.44 1.438H3.75a1.44 1.44 0 0 1-1.438-1.439V3.336a1.44 1.44 0 0 1 1.439-1.44h16.365a1.44 1.44 0 0 1 1.439 1.44v11.183zM20.12.681H3.75a2.651 2.651 0 0 0-2.649 2.65v11.187a2.651 2.651 0 0 0 2.65 2.65h16.365a2.651 2.651 0 0 0 2.65-2.65V3.336A2.649 2.649 0 0 0 20.12.682z"/><path fill="none" stroke="#fff" stroke-miterlimit="20" stroke-width=".8" d="M21.56 14.52a1.44 1.44 0 0 1-1.44 1.438H3.75a1.44 1.44 0 0 1-1.438-1.439V3.336a1.44 1.44 0 0 1 1.439-1.44h16.365a1.44 1.44 0 0 1 1.439 1.44v11.183zM20.12.681H3.75a2.651 2.651 0 0 0-2.649 2.65v11.187a2.651 2.651 0 0 0 2.65 2.65h16.365a2.651 2.651 0 0 0 2.65-2.65V3.336A2.649 2.649 0 0 0 20.12.682z"/></g></g></svg>