<svg xmlns="http://www.w3.org/2000/svg" width="21" height="15" viewBox="0 0 21 15"><g><g opacity=".72"><path fill="#ed5152" d="M13.713 8.346l-4.27 2.232a.656.656 0 0 1-.961-.582v-4.45a.657.657 0 0 1 .96-.582l4.27 2.217a.657.657 0 0 1 .001 1.165zm6.494-6.42c-.735-.873-2.092-1.23-4.682-1.23H6.12c-2.65 0-4.029.38-4.761 1.31-.714.906-.714 2.242-.714 4.091v3.524c0 3.582.847 5.4 5.475 5.4h9.405c2.246 0 3.491-.314 4.297-1.085.826-.79 1.178-2.08 1.178-4.315V6.097c0-1.95-.055-3.293-.793-4.17z"/></g></g></svg>