<svg xmlns="http://www.w3.org/2000/svg" width="20" height="20" viewBox="0 0 20 20"><g><g opacity=".72"><path fill="#efc066" d="M17.752 14.104a3.652 3.652 0 0 1-3.648 3.648H5.376a3.651 3.651 0 0 1-3.648-3.648V5.376a3.652 3.652 0 0 1 3.648-3.648h8.728a3.652 3.652 0 0 1 3.648 3.648v8.728zM14.104 0H5.376A5.382 5.382 0 0 0 0 5.376v8.728a5.382 5.382 0 0 0 5.376 5.376h8.728a5.382 5.382 0 0 0 5.376-5.376V5.376A5.382 5.382 0 0 0 14.104 0z"/></g><g opacity=".72"><path fill="#efc066" d="M9.74 13.031a3.295 3.295 0 0 1-3.291-3.29 3.295 3.295 0 0 1 3.29-3.292 3.295 3.295 0 0 1 3.292 3.291 3.295 3.295 0 0 1-3.291 3.291zm0-8.31a5.025 5.025 0 0 0-5.02 5.02 5.025 5.025 0 0 0 5.02 5.018 5.025 5.025 0 0 0 5.02-5.019 5.025 5.025 0 0 0-5.02-5.02z"/></g><g opacity=".72"><path fill="#efc066" d="M14.97 3.255a1.272 1.272 0 0 0-1.268 1.268c0 .333.136.66.373.896.235.235.562.371.895.371.334 0 .66-.136.896-.37a1.273 1.273 0 0 0 0-1.793 1.273 1.273 0 0 0-.896-.372z"/></g></g></svg>